<svg height="50" viewBox="0 0 50 50" width="50" xmlns="http://www.w3.org/2000/svg"><g fill="#fff"><path d="m34.346 0h-24.698c-1.862.054-3.359 1.551-3.414 3.414v43.172c.055 1.862 1.551 3.359 3.414 3.414h24.699c1.862-.055 3.359-1.551 3.414-3.414v-42.771c.114-1.993-1.409-3.701-3.402-3.815h-.012zm-12.45 47.791c-1.442 0-2.61-1.169-2.61-2.61s1.169-2.61 2.61-2.61 2.61 1.169 2.61 2.61c0 1.442-1.169 2.61-2.61 2.61zm11.369-7.588h-22.536c-.486 0-.88-.394-.88-.88v-34.738c0-.486.394-.88.88-.88h22.537c.486 0 .88.394.88.88v34.738c0 .486-.394.88-.88.88z"/><path d="m46.838 22.296c.003 3.63-.758 7.216-2.231 10.526-.255.574-.149 1.242.295 1.687.743.743 2.009.512 2.437-.448 3.332-7.486 3.332-16.043 0-23.529-.428-.96-1.693-1.192-2.437-.448-.444.445-.55 1.114-.295 1.688 1.473 3.309 2.235 6.895 2.232 10.525z"/><path d="m44.408 21.16c-.147-2.19-.504-4.364-1.231-6.465-.366-.905-1.494-1.185-2.265-.621-.498.413-.753 1.081-.531 1.7 1.416 4.213 1.416 8.778 0 12.991-.044.131-.068.264-.078.398-.017.413.126.82.428 1.121l.181.181c.771.564 1.899.284 2.265-.621.961-2.809 1.331-5.742 1.231-8.685z"/><path d="m22 13.215c-5.029 0-9.08 4.051-9.08 9.08s4.051 9.08 9.08 9.08 9.08-4.051 9.08-9.08-4.051-9.08-9.08-9.08zm4.259 13.291c-.093.459-1.678 1.321-2.574 1.152-.539-.102-2.451-.653-4.362-3.449s-1.728-4.775-1.627-5.315c.168-.897 1.547-2.06 2.006-1.98l.487.092c.263.05.464.264.496.529l.266 2.188c.028.227-.073.451-.262.58l-.853.583c-.076.052-.108.149-.078.236.261.732.618 1.427 1.062 2.065.433.645.951 1.23 1.538 1.74.07.06.172.065.248.013l.903-.617c.157-.108.362-.119.531-.029l1.996 1.073c.236.126.364.391.314.654l-.091.484z"/></g></svg>