<svg height="50" viewBox="0 0 50 50" width="50" xmlns="http://www.w3.org/2000/svg"><path d="m47.684 14.816-27.791-7.8a3.049 3.049 0 0 0 -3.788 2.063l-.011.036-1.5 5.5-1.4 5h-9.994a3.137 3.137 0 0 0 -3.2 3.074v17.319a3.114 3.114 0 0 0 3.1 3.1h28.99a3.114 3.114 0 0 0 3.1-3.1v-4.3l1 .3 5.2 1.5a3.05 3.05 0 0 0 3.788-2.062l.01-.037 4.7-16.594a3.278 3.278 0 0 0 -2.204-3.999zm-30.99 1.9.9-3a.886.886 0 0 1 1-.6l5 1.4a.887.887 0 0 1 .6 1l-.9 3a.887.887 0 0 1 -1 .6l-5-1.4a.886.886 0 0 1 -.6-1zm16.6 23.292a1.324 1.324 0 0 1 -1.3 1.3h-28.994a1.324 1.324 0 0 1 -1.3-1.3v-11.3h31.59zm0-15.8h-31.494v-1.4a1.324 1.324 0 0 1 1.3-1.3h28.99a1.323 1.323 0 0 1 1.3 1.3zm10.6 5.7-8.8-2.5v-2.4l9.4 2.6zm-24.192.8h-16.002v3.4h15.993z" fill="#f58025"/></svg>