<svg height="50" viewBox="0 0 50 50" width="50" xmlns="http://www.w3.org/2000/svg"><path d="m46.493 23.239c-1.603-.802-5.11-1.503-9.419-2.004l-10.02-5.411-.1-.1c-2.001-.933-4.244-1.214-6.413-.802-1.552.213-3.091.514-4.609.902-3.35.836-6.607 2.011-9.719 3.507h-1.804c-1.514-.071-2.956.65-3.808 1.904-.362.571-.57 1.227-.601 1.903v5.411c.006.806.212 1.598.601 2.305.1.1.2.301.301.401.846.843 2.014 1.282 3.206 1.202-.368-1.847.194-3.757 1.503-5.11 1.068-1.049 2.511-1.626 4.008-1.603 3.051-.063 5.576 2.359 5.639 5.411.009.438-.034.875-.128 1.303h18.236c-.368-1.847.194-3.757 1.503-5.11 2.185-2.213 5.751-2.236 7.964-.051 1.362 1.344 1.947 3.288 1.555 5.161h.501c1.804 0 2.605-.2 3.006-1.503.601-1.804 2.104-2.705 2.104-4.108-.008-.324-.112-.638-.301-.902-.815-1.166-1.92-2.098-3.206-2.705zm-14.729-2.505-21.242-1.202c-.2 0-.2-.2-.1-.301 3.389-1.31 6.92-2.218 10.521-2.705 1.67-.192 3.361.05 4.91.701l6.012 3.206c.2.1.1.301-.1.301zm7.114 6.513c-2.214.028-3.986 1.845-3.958 4.058.028 2.214 1.845 3.986 4.058 3.958 2.142-.038 3.87-1.766 3.908-3.908 0-2.23-1.778-4.054-4.008-4.108zm2.204 4.609c-.227.829-.875 1.476-1.703 1.703-1.291.283-2.568-.535-2.851-1.826-.034-.157-.053-.318-.055-.479-.021-1.252.978-2.284 2.23-2.305h.075c1.295-.016 2.357 1.022 2.373 2.316.002.199-.02.397-.068.589zm-31.563-4.609c-2.214.028-3.986 1.845-3.958 4.058.028 2.214 1.845 3.986 4.058 3.958s3.986-1.845 3.958-4.058c-.028-2.214-1.845-3.986-4.058-3.958zm2.305 4.609c-.227.829-.875 1.476-1.703 1.703-1.291.283-2.568-.535-2.851-1.826-.034-.157-.053-.318-.055-.479-.021-1.252.978-2.284 2.23-2.305h.075c1.295-.016 2.357 1.022 2.373 2.316.002.199-.02.397-.068.589z" fill="#f58025"/></svg>